<svg xmlns="http://www.w3.org/2000/svg" xmlns:xlink="http://www.w3.org/1999/xlink" height="33.4741485867894" width="33.6508137371693">
  <defs>
    <rect id="rect-1" opacity="1" x="0.38613062728518344" y="0.4741299041866114" width="33" height="33"/>
  </defs>
  <g opacity="1">
    <g opacity="1">
      <path fill="rgb(164,83,33)" fill-opacity="1" opacity="1" fill-rule="evenodd" d="M19.39067774642581 0.6687099823116114C23.746482189785183 1.3374111541866114 27.58104639876956 3.6623623260616114 30.188254650722683 7.215096701061611C32.53395777572268 10.411751974499111 33.65080958236331 14.345956076061611 33.33306055892581 18.29322170106161C33.31713038314456 18.49109767762411 33.29677515853518 18.68811916199911 33.27382593978518 18.88453029481161C33.27260523666018 18.90039943543661 33.27077418197268 18.91614650574911 33.26839381087893 18.93201564637411C33.01125269759768 21.08020900574911 31.30644923080081 24.90430568543661 31.11998682845706 25.32288478699911C30.405722912441433 26.53772853699911 29.55693751205081 27.64136623231161 28.571006115566433 28.62769435731161C28.319358166347683 28.87928127137411 27.91136866439456 28.87952541199911 27.659629162441433 28.62781642762411C27.407859142910183 28.37622951356161 27.407798107753933 27.96814845887411 27.659446056972683 27.71643947449911C28.21971827376956 27.15589259949911 28.72710352767581 26.55823634949911 29.18187647689456 25.93103908387411L23.94994288314456 26.91382716981161L21.277671154628933 31.54676174012411C22.10704737533206 31.29419826356161 22.92534571517581 30.96827052918661 23.723594006191433 30.56543849793661C24.041343029628933 30.40491603699911 24.428916271816433 30.53260158387411 24.589255627285183 30.85035060731161C24.74968653548831 31.16809963074911 24.62206202376956 31.55567287293661 24.30431300033206 31.71607326356161C23.10289698470706 32.32239650574911 20.602561291347683 33.02112697449911 20.19103175033206 33.13623927918661C20.15325098861331 33.14673732606161 20.13304835189456 33.15235256043661 20.13310938705081 33.15259670106161C19.00548487533206 33.37098049012411 17.950400646816433 33.47412990418661 16.891867931972683 33.47412990418661C15.858878430019558 33.47412990418661 13.744437512050808 33.17066310731161 13.744437512050808 33.17066310731161C13.458274181972683 33.11451076356161 13.283805187832058 33.07727931824911 13.109763439785183 33.03638576356161C9.292014416347683 32.14014552918661 5.909903820644558 29.90296291199911 3.5866311155664334 26.73694728699911C3.2455971800195584 26.27210353699911 2.6417458616601834 25.29932521668661 2.6415932737695584 25.29944728699911C0.7290871702539334 22.03589748231161 -0.00000828873044156353 18.25464748231161 0.5805275999414334 14.472665060436611C1.2491677366601834 10.116830099499111 3.5740578733789334 6.282113302624111 7.126761730800808 3.6749355682491114C10.679557140957058 1.0676357635616114 15.034995373378933 0.00000881043661138392 19.39067774642581 0.6687099823116114ZM27.840598400722683 6.421517599499111C25.54039698470706 4.024422872936611 22.53423243392581 2.4553310760616114 19.19518214095706 1.9426357635616114C16.89018946517581 1.5888759979366114 14.585746105800808 1.7634365448116114 12.420951183925808 2.4300625213741114L16.860617931972683 5.146493185436611L17.789206799160183 4.480843771374111C18.078513439785183 4.273568380749111 18.481040295253933 4.339974630749111 18.688437756191433 4.629281271374111C18.895774181972683 4.918587911999111 18.82933741439456 5.321175802624111 18.540061291347683 5.528573263561611L17.547690685878933 6.239876974499111L17.547690685878933 11.080453146374111L22.001853283535183 14.316659201061611L27.054282482753933 13.182259786999111L27.840598400722683 6.421517599499111ZM10.879721935878933 2.9981777557491114C9.833640392910183 3.4502041229366114 8.830802258144558 4.023080099499111 7.889396008144558 4.713998068249111C7.076072033535183 5.310921896374111 6.332785900722683 5.977547872936611 5.665122326503933 6.703988302624111L6.700827892910183 13.177865255749111L11.773154553066433 14.316781271374111L16.227317150722683 11.080453146374111L16.227317150722683 6.270150411999111L10.879721935878933 2.9981777557491114ZM28.31706934798831 13.480965841686611L32.06322413314456 17.32801174012411C32.14107447494143 14.056527365124111 31.184470471035183 10.751351583874111 29.14916163314456 7.977792013561611C29.094504650722683 7.903329122936611 29.03868800033206 7.830086935436611 28.982871349941433 7.756844747936611L28.31706934798831 13.480965841686611ZM1.8544533811914334 14.668343771374111C2.2282631956445584 12.233163107311611 3.1644509397851834 9.975228536999111 4.573264416347683 8.038705099499111L5.445273693691433 13.489754904186611L1.6777260862695584 17.29029201356161C1.6617348753320584 16.42139552918661 1.7199929319726834 15.544930685436611 1.8544533811914334 14.668343771374111ZM12.673819836269558 15.255501974499111L14.772788342128933 13.730477560436611L16.871787365566433 12.205453146374111L21.06975489486331 15.255501974499111L19.466269787441433 20.19056056824911L14.277274426113308 20.19056056824911L12.673819836269558 15.255501974499111ZM6.339988049160183 14.417855490124111L1.8064187132226834 18.99121974793661C2.0571511350976834 20.88745998231161 2.6664956175195584 22.72107814637411 3.6155007444726834 24.40808986512411L9.930869396816433 25.62037013856161L13.101065930019558 20.74170802918661L11.416709240566433 15.557625997936611L6.339988049160183 14.417855490124111ZM30.133689221035183 24.44056056824911L23.844992931972683 25.62183498231161L20.67375880111331 20.74170802918661L22.358176525722683 15.557625997936611L27.431174572597683 14.418587911999111L31.928061779628933 19.03650783387411C31.673667248378933 20.91944240418661 31.073020275722683 22.75769924012411 30.133689221035183 24.44056056824911ZM14.230246838222683 31.97071193543661C15.972342785488308 32.27979396668661 17.772116955410183 32.28479884949911 19.54839259017581 31.96497463074911L22.784201916347683 26.35498927918661L19.61601954330081 21.47950099793661L14.158805187832058 21.47950099793661L10.990622814785183 26.35498927918661L14.230246838222683 31.97071193543661ZM4.625724133144558 25.97449611512411C4.608847912441433 25.95142482606161 4.592795666347683 25.92810939637411 4.576041515957058 25.90503810731161L9.824088390957058 26.91248439637411L12.504569347988308 31.55884670106161C9.438834484707058 30.63465236512411 6.651511486660183 28.73487209168661 4.625724133144558 25.97449611512411Z"/>
    </g>
    <g opacity="1">
      <path fill="rgb(164,83,33)" fill-opacity="1" opacity="1" fill-rule="evenodd" d="M20.42160446763516 3.257925988300457C20.301721546355864 3.138040293324819 20.13549678615194 3.069073791376468 19.965984913590354 3.069073791376468C19.796473041028772 3.069073791376468 19.630248280824848 3.138040293324819 19.510365359545553 3.257925988300457C19.390482438266258 3.3778116832760956 19.321517531938923 3.5440402893740375 19.321517531938923 3.7135560838826014C19.321517531938923 3.8830718783911653 19.390482438266258 4.049300484489107 19.510365359545553 4.169186179464745C19.630248280824848 4.289716421187564 19.796473041028772 4.358038376388735 19.965984913590354 4.358038376388735C20.13549678615194 4.358038376388735 20.301721546355864 4.289716421187564 20.42160446763516 4.169186179464745C20.541487388914454 4.049300484489107 20.61045229524179 3.8830718783911653 20.61045229524179 3.7135560838826014C20.61045229524179 3.5440402893740375 20.541487388914454 3.3777472286013777 20.42160446763516 3.257925988300457Z"/>
    </g>
    <g opacity="1">
      <path fill="rgb(164,83,33)" fill-opacity="1" opacity="1" fill-rule="evenodd" d="M26.64681519438712 29.32642581400589C26.52693227310786 29.20654011903025 26.36070751290398 29.137573617081898 26.191195640342443 29.137573617081898C26.02168376778091 29.137573617081898 25.85545900757703 29.20654011903025 25.73557608629777 29.32642581400589C25.615693165018506 29.44631150898153 25.54672825869119 29.612540115079472 25.54672825869119 29.78205590958804C25.54672825869119 29.9515717040966 25.615693165018506 30.117800310194543 25.73557608629777 30.237686005170183C25.85545900757703 30.358216246893004 26.021619314597423 30.426538202094175 26.191195640342443 30.426538202094175C26.36070751290398 30.426538202094175 26.52693227310786 30.358216246893004 26.64681519438712 30.237686005170183C26.766698115666383 30.117800310194543 26.8356630219937 29.9515717040966 26.8356630219937 29.78205590958804C26.8356630219937 29.612540115079472 26.766698115666383 29.44631150898153 26.64681519438712 29.32642581400589Z"/>
    </g>
  </g>
</svg>