<svg xmlns="http://www.w3.org/2000/svg" xmlns:xlink="http://www.w3.org/1999/xlink" height="299.32400000000007" width="296.9989999999998">
  <g opacity="1">
    <g opacity="1">
      <path fill="rgb(38,13,13)" fill-opacity="1" opacity="1" fill-rule="evenodd" d="M156.29200000000003 32.071L156.29200000000003 91.17699999999999L205.336 126.809L253.65 98.68299999999999L253.65 43.551C240.66 30.570999999999998 225.226 20.023999999999997 207.90800000000002 12.479L156.29200000000003 32.071Z"/>
    </g>
    <g opacity="1">
      <path fill="rgb(38,13,13)" fill-opacity="1" opacity="1" fill-rule="evenodd" d="M148.49100000000004 104.793L101.28700000000003 139.088L119.31800000000003 194.579L177.66500000000002 194.579L195.69600000000003 139.088L148.49100000000004 104.793Z"/>
    </g>
    <g opacity="1">
      <path fill="rgb(38,13,13)" fill-opacity="1" opacity="1" fill-rule="evenodd" d="M188.05300000000003 292.1L215.52300000000002 247.79700000000003L179.97200000000004 210.18000000000004L117.01300000000003 210.18000000000004L81.46700000000004 247.79200000000003L109.04100000000004 292.13700000000006C134.95200000000006 299.32400000000007 162.09600000000003 299.3190000000001 188.05300000000003 292.1Z"/>
    </g>
    <g opacity="1">
      <path fill="rgb(38,13,13)" fill-opacity="1" opacity="1" fill-rule="evenodd" d="M112.183 4.564L148.491 18.346L184.817 4.558C172.876 1.523 160.695 0 148.51 0C136.327 0 124.14099999999999 1.527 112.183 4.564Z"/>
    </g>
    <g opacity="1">
      <path fill="rgb(38,13,13)" fill-opacity="1" opacity="1" fill-rule="evenodd" d="M259.778 113.167L211.36300000000003 141.352L192.18100000000004 200.386L227.40000000000003 237.652L280.42600000000004 217.337C282.19200000000006 213.926 283.84000000000003 210.435 285.357 206.862C292.125 190.917 296.00600000000003 174.238 296.999 157.444L259.778 113.167Z"/>
    </g>
    <g opacity="1">
      <path fill="rgb(38,13,13)" fill-opacity="1" opacity="1" fill-rule="evenodd" d="M104.80200000000002 200.386L85.62000000000003 141.352L37.21400000000003 113.172L2.842170943040401e-14 157.572C0.9570000000000277 173.465 4.496000000000029 189.27 10.635000000000028 204.463C12.354000000000028 208.71699999999998 14.260000000000028 212.85899999999998 16.330000000000027 216.892L69.60500000000002 237.63L104.80200000000002 200.386Z"/>
    </g>
    <g opacity="1">
      <path fill="rgb(38,13,13)" fill-opacity="1" opacity="1" fill-rule="evenodd" d="M266.46900000000005 239.342L230.56300000000005 253.143L211.89500000000004 283.249C233.58200000000005 273.059 252.17000000000004 258.033 266.46900000000005 239.342Z"/>
    </g>
    <g opacity="1">
      <path fill="rgb(38,13,13)" fill-opacity="1" opacity="1" fill-rule="evenodd" d="M269.25100000000003 61.938L269.25100000000003 100.178L296.312 132.166C294.803 118.90899999999999 291.48400000000004 105.774 286.35 93.06700000000001C281.84000000000003 81.90400000000001 276.08700000000005 71.483 269.25100000000003 61.938Z"/>
    </g>
    <g opacity="1">
      <path fill="rgb(38,13,13)" fill-opacity="1" opacity="1" fill-rule="evenodd" d="M85.08300000000003 283.243L66.41900000000001 253.143L30.49200000000002 239.334C44.77100000000002 257.998 63.362000000000016 273.025 85.08300000000003 283.243Z"/>
    </g>
    <g opacity="1">
      <path fill="rgb(38,13,13)" fill-opacity="1" opacity="1" fill-rule="evenodd" d="M91.64700000000003 126.809L140.69100000000003 91.17699999999999L140.69100000000003 32.07099999999999L89.06500000000003 12.474999999999994C71.76800000000003 20.002999999999993 56.33500000000003 30.55299999999999 43.33300000000003 43.551L43.33300000000003 98.68299999999999L91.64700000000003 126.809Z"/>
    </g>
    <g opacity="1">
      <path fill="rgb(38,13,13)" fill-opacity="1" opacity="1" fill-rule="evenodd" d="M0.674000000000038 132.163L27.732000000000035 100.17800000000001L27.732000000000035 61.931C21.39200000000004 70.78399999999999 15.984000000000036 80.402 11.626000000000035 90.669C5.924000000000035 104.103 2.278000000000034 118.057 0.674000000000038 132.163Z"/>
    </g>
  </g>
</svg>