<svg xmlns="http://www.w3.org/2000/svg" xmlns:xlink="http://www.w3.org/1999/xlink" height="56" width="133">
  <g opacity="1">
    <g opacity="1">
      <path fill="rgb(255,255,255)" fill-opacity="1" opacity="1" fill-rule="evenodd" d="M68.36285400390625 8.431053161621094C67.76444244384766 7.830284118652344 66.94593811035156 7.500988006591797 66.09815979003906 7.519931793212891L62.66114807128906 7.519931793212891L62.66114807128906 16.631160736083984L64.7313461303711 16.631160736083984L64.7313461303711 13.767250061035156L66.09815979003906 13.767250061035156C66.94593811035156 13.78619384765625 67.76444244384766 13.456897735595703 68.36285400390625 12.856128692626953C68.95466613769531 12.271965026855469 69.28778076171875 11.475105285644531 69.28778076171875 10.643592834472656C69.28778076171875 9.812080383300781 68.95466613769531 9.015216827392578 68.36285400390625 8.431053161621094ZM66.8974609375 11.47878646850586C66.693359375 11.70306396484375 66.4012680053711 11.826705932617188 66.09815979003906 11.817127227783203L64.7313461303711 11.817127227783203L64.7313461303711 9.47271728515625L66.09815979003906 9.47271728515625C66.4014663696289 9.462043762207031 66.69400787353516 9.585872650146484 66.8974609375 9.811058044433594C67.31330108642578 10.28921890258789 67.31330108642578 11.000625610351562 66.8974609375 11.47878646850586Z"/>
    </g>
    <g opacity="1">
      <path fill="rgb(255,255,255)" fill-opacity="1" opacity="1" fill-rule="evenodd" d="M72.80240631103516 16.094959259033203C74.7236328125 17.359020233154297 77.27086639404297 17.086956024169922 78.8817138671875 15.445636749267578C79.78501892089844 14.559608459472656 80.28327941894531 13.340564727783203 80.25918579101562 12.075550079345703C80.2591323852539 9.775920867919922 78.63162231445312 7.797817230224609 76.37491607666016 7.354534149169922C74.11820220947266 6.911247253417969 71.86326599121094 8.126720428466797 70.9931869506836 10.25543212890625C70.12311553955078 12.384140014648438 70.88117218017578 14.83089828491211 72.80240631103516 16.094959259033203ZM77.41632080078125 14.028335571289062C76.35330963134766 15.03311538696289 74.69062042236328 15.03311538696289 73.62760925292969 14.028335571289062C72.6153793334961 12.92422103881836 72.6153793334961 11.229537963867188 73.62760925292969 10.125423431396484C74.68901824951172 9.116615295410156 76.35491180419922 9.116615295410156 77.41632080078125 10.125423431396484C78.432373046875 11.228050231933594 78.432373046875 12.925708770751953 77.41632080078125 14.028335571289062Z"/>
    </g>
    <g opacity="1">
      <path fill="rgb(255,255,255)" fill-opacity="1" opacity="1" fill-rule="evenodd" d="M84.42356298296887 14.625092535644256L87.67939920690488 14.625092535644256L87.67939920690488 16.631161444236263L82.35069834939915 16.631161444236263L82.35069834939915 7.5199321382805095L84.43155603425514 7.5199321382805095L84.42356298296887 14.625092535644256Z"/>
    </g>
    <g opacity="1">
      <path fill="rgb(255,255,255)" fill-opacity="1" opacity="1" fill-rule="evenodd" d="M92.5604891923823 16.812320389500854C91.74360898130547 16.84189749050219 90.9359442197885 16.631664904146106 90.23717561850934 16.207569204573392C89.62378352217375 15.820569029380954 89.15545340080746 15.241766943333381 88.90500040413264 14.561154084374376L90.70077259311243 13.519490149102825C90.993469385316 14.313573622090377 91.7684848144604 14.825165654336947 92.61377620095739 14.782274561682655C92.61377620095739 14.782274561682655 93.8526991503277 14.782274561682655 93.8526991503277 14.04165416780673C93.85219934497171 13.771795580710357 93.69675002455217 13.526208542992588 93.45304658601466 13.4102619615168C92.9776868109204 13.178451468630099 92.4782106964979 12.999764682252238 91.96367469634153 12.877441534267945C91.62082919860423 12.787346861872237 91.285810775133 12.669744971495428 90.96187893513027 12.525780052283707C90.66287229288176 12.38799002969611 90.3811683193878 12.215406536949795 90.12260855007295 12.011608339988545C89.85046703240481 11.801619752348746 89.63521871136416 11.526860269055732 89.4964861993159 11.212377699115205C89.34879173234931 10.862834463192172 89.2761745485348 10.486167927219615 89.28333816501562 10.106775312573818C89.25465938729118 9.330720873405111 89.588441836777 8.585441323334065 90.18655296036303 8.090049995436841C90.79116673059451 7.588049102066607 91.55628756664437 7.320423616147281 92.34201245722453 7.336109090879692C93.03804896576254 7.323841163459073 93.72337773794791 7.508548685281646 94.31896047535956 7.868929518128549C94.90880929337995 8.236722500730277 95.37904291344918 8.767999950441876 95.67245049316628 9.398124144332828L93.91664356061779 10.426467568923155C93.78366560412752 10.11228906118206 93.57275263794095 9.837210829347375 93.30384296200448 9.627236928049847C93.02036112252976 9.4370282585474 92.68296758338475 9.343576154052448 92.34201245722451 9.36082671442541C92.08567492819012 9.344008153580285 91.83119003989839 9.414430987348739 91.61997349103234 9.560634374643737C91.45692821329713 9.671172320557984 91.35761012318106 9.853900576222273 91.35353844815701 10.050829167712692C91.35928469995504 10.286337449851317 91.47834611020973 10.504596360402756 91.67326049960741 10.636931637686448C92.08574548874584 10.8880682611568 92.53535824935321 11.072392314129328 93.00543571398411 11.18307257561653L93.8526991503277 11.44948278924098C94.11286115718393 11.548805444694523 94.36648064505174 11.664480746020356 94.61203902252242 11.79581606695275C94.8742208364852 11.922250115305097 95.11226951385915 12.093557061360537 95.31542753571333 12.30199547283917C95.49518118063911 12.51193847856571 95.64001548397826 12.749408620308223 95.74438795474262 13.005318436807677C96.16728596387429 14.076295957484195 95.86701859362562 15.297554393946655 94.99570548426291 16.050387178534997C94.2965929627625 16.57846894878749 93.43594635000488 16.847749028487883 92.5604891923823 16.812320389500854Z"/>
    </g>
    <g opacity="1">
      <path fill="rgb(255,255,255)" fill-opacity="1" opacity="1" fill-rule="evenodd" d="M105.19750327596002 16.631161444236263L102.82889574479805 16.631161444236263L99.91409637574158 12.42188006897015L99.91409637574158 16.631161444236263L97.83057434045627 16.631161444236263L97.83057434045627 7.5199321382805095L99.91409637574161 7.5199321382805095L99.91409637574161 11.47612381060341L102.69834257378915 7.5199321382805095L105.06961445537986 7.5199321382805095L101.99761841102695 11.958326297263643L105.19750327596002 16.631161444236263Z"/>
    </g>
    <g opacity="1">
      <path fill="rgb(255,255,255)" fill-opacity="1" opacity="1" fill-rule="evenodd" d="M106.88936579821633 7.5199321382805095L108.97288783350278 7.5199321382805095L108.97288783350278 16.631161444236263L106.88936579821633 16.631161444236263L106.88936579821633 7.5199321382805095Z"/>
    </g>
    <g opacity="1">
      <path fill="rgb(255,255,255)" fill-opacity="1" opacity="1" fill-rule="evenodd" d="M65.7198257446289 26.080730438232422L67.44099426269531 29.07251739501953L69.68970489501953 29.07251739501953L67.75006103515625 25.729068756103516C68.24478149414062 25.475555419921875 68.66386413574219 25.096027374267578 68.96500396728516 24.628795623779297C69.26918029785156 24.172012329101562 69.43055725097656 23.635059356689453 69.42859649658203 23.086280822753906C69.43144226074219 22.257320404052734 69.10336303710938 21.461490631103516 68.51714324951172 20.875320434570312C67.93092346191406 20.289154052734375 67.13501739501953 19.961109161376953 66.30597686767578 19.963951110839844L62.66114807128906 19.963951110839844L62.66114807128906 29.07251739501953L64.7313461303711 29.07251739501953L64.7313461303711 26.080730438232422L65.7198257446289 26.080730438232422ZM64.7313461303711 24.258487701416016L64.7313461303711 21.914077758789062L66.29531860351562 21.914077758789062C66.57843780517578 21.9124755859375 66.84771728515625 22.036373138427734 67.03067779541016 22.252418518066406C67.4353256225586 22.73470687866211 67.4353256225586 23.437854766845703 67.03067779541016 23.920143127441406C66.84681701660156 24.13500213623047 66.578125 24.25863265991211 66.29531860351562 24.258487701416016L64.7313461303711 24.258487701416016Z"/>
    </g>
    <g opacity="1">
      <path fill="rgb(255,255,255)" fill-opacity="1" opacity="1" fill-rule="evenodd" d="M77.01667022705078 27.64189910888672L77.50424194335938 29.072521209716797L79.64105224609375 29.072521209716797L76.5370864868164 19.96395492553711L73.87273406982422 19.96395492553711L70.77409362792969 29.072521209716797L73.05211639404297 29.072521209716797L73.51038360595703 27.64189910888672L77.01667022705078 27.64189910888672ZM76.3505859375 25.689109802246094L74.14183807373047 25.689109802246094L75.21024322509766 22.345661163330078L76.3505859375 25.689109802246094Z"/>
    </g>
    <g opacity="1">
      <path fill="rgb(255,255,255)" fill-opacity="1" opacity="1" fill-rule="evenodd" d="M86.4031753515325 19.9639532166779L88.48669738681724 19.9639532166779L88.48669738681724 29.07251842049737L86.9227236851393 29.07251842049737L83.40844546961426 24.127944855627838L83.40844546961426 29.07251842049737L81.32758778475826 29.07251842049737L81.32758778475826 19.9639532166779L82.88889713600746 19.9639532166779L86.4031753515325 24.908526781547437L86.4031753515325 19.9639532166779Z"/>
    </g>
    <g opacity="1">
      <path fill="rgb(255,255,255)" fill-opacity="1" opacity="1" fill-rule="evenodd" d="M98.32614352020366 29.07251842049737L95.96552904032833 29.07251842049737L93.03474356869984 24.863237045231276L93.03474356869984 29.07251842049737L90.95388588384361 29.07251842049737L90.95388588384361 19.9639532166779L93.03474356869984 19.9639532166779L93.03474356869984 23.917480786864527L95.82165411717565 19.9639532166779L98.19026164833723 19.9639532166779L95.12359430484233 24.402347375661012L98.32614352020366 29.07251842049737Z"/>
    </g>
    <g opacity="1">
      <path fill="rgb(255,255,255)" fill-opacity="1" opacity="1" fill-rule="evenodd" d="M100.01800604246286 19.9639532166779L102.09353502646148 19.9639532166779L102.09353502646148 29.07251842049737L100.01001299117658 29.07251842049737L100.01800604246286 19.9639532166779Z"/>
    </g>
    <g opacity="1">
      <path fill="rgb(255,255,255)" fill-opacity="1" opacity="1" fill-rule="evenodd" d="M109.64963284240642 19.9639532166779L111.73315487769177 19.9639532166779L111.73315487769177 29.07251842049737L110.16918117601338 29.07251842049737L106.65490296048733 24.127944855627838L106.65490296048733 29.07251842049737L104.57404527563075 29.07251842049737L104.57404527563075 19.9639532166779L106.13535462688039 19.9639532166779L109.64963284240642 24.908526781547437L109.64963284240642 19.9639532166779Z"/>
    </g>
    <g opacity="1">
      <path fill="rgb(255,255,255)" fill-opacity="1" opacity="1" fill-rule="evenodd" d="M123.22449827690487 23.997403850951716L123.22449827690487 24.77798577687131C123.22449827690487 26.139341968492175 122.8035309091618 27.22895974221611 121.95626747281815 28.0388467916344C121.08786924006073 28.857958972055275 119.92821112392889 29.296266971569587 118.73506780445501 29.256341467898046C117.42420982641228 29.29721346964046 116.15296746300459 28.803955861165512 115.21279653764277 27.889657072004713C114.29831754714208 27.01416436808469 113.79203896320428 25.795924292068925 113.81667691297588 24.530224278200585C113.79276197997976 23.26366401212461 114.29429033747367 22.043713533315525 115.2021391359278 21.16013507585146C116.09507374512056 20.25371804531627 117.32168294712632 19.754641568615 118.5938572317311 19.78013016927693C119.4085022970546 19.77164671520072 120.21214116341731 19.968643584722304 120.93049255774801 20.352912128569443C121.60273455996604 20.702757298678197 122.17072019787507 21.223821772545584 122.57706112271772 21.863458039819996L120.80793243802533 22.878480953729092C120.58499716601392 22.5469753105456 120.27660586650117 22.28187555718587 119.91537504439287 22.11121953849072C119.5012681498443 21.907521756332272 119.04464036804818 21.80524666517897 118.58319983001607 21.81284009923135C117.86527800039015 21.79007773235331 117.17026654417036 22.06709120368469 116.66486752131347 22.57743741233348C116.15125740390123 23.10013048479023 115.8756375650419 23.811279035173065 115.90286329868994 24.54354478888181C115.87742279623981 25.269705981019825 116.16112299604555 25.972597281103116 116.68351797431473 26.477682939795205C117.2512714657694 26.99333868562431 118.00098458539941 27.261753149753016 118.76704000960008 27.223631537943625C118.76704000960008 27.223631537943625 120.57346960029498 27.223631537943625 121.0956822843307 25.81964971214286L118.66046599244991 25.81964971214286L118.66046599244991 23.99740385095173L123.22449827690487 23.997403850951716Z"/>
    </g>
    <g opacity="1">
      <path fill="rgb(255,255,255)" fill-opacity="1" opacity="1" fill-rule="evenodd" d="M68.18168276928955 34.408714999394576L64.71802721191001 34.408714999394576L64.71802721191001 36.16702240931585L68.10175225642693 36.16702240931585L68.10175225642693 38.170427215771596L64.71802721191001 38.170427215771596L64.71802721191001 41.5165394988945L62.66114868091232 41.5165394988945L62.66114868091232 32.40531019293883L68.19234017100456 32.40531019293883L68.18168276928955 34.408714999394576Z"/>
    </g>
    <g opacity="1">
      <path fill="rgb(255,255,255)" fill-opacity="1" opacity="1" fill-rule="evenodd" d="M73.39847564697266 38.52208709716797L75.1196517944336 41.51654052734375L77.35770416259766 41.51654052734375L75.41806030273438 38.17042541503906C75.91361236572266 37.91708755493164 76.3335952758789 37.53757095336914 76.63566589355469 37.070152282714844C76.93831634521484 36.61279296875 77.09870910644531 36.076045989990234 77.09659576416016 35.52763748168945C77.09944152832031 34.69867706298828 76.7713623046875 33.90284729003906 76.18514251708984 33.31667709350586C75.59892272949219 32.73051071166992 74.80301666259766 32.4024658203125 73.9739761352539 32.40530776977539L70.32914733886719 32.40530776977539L70.32914733886719 41.51654052734375L72.41000366210938 41.51654052734375L72.41000366210938 38.52208709716797L73.39847564697266 38.52208709716797ZM72.41000366210938 36.6998405456543L72.41000366210938 34.358097076416016L73.9739761352539 34.358097076416016C74.25709533691406 34.35649490356445 74.52637481689453 34.48039245605469 74.70933532714844 34.69643783569336C75.11797332763672 35.1762580871582 75.11797332763672 35.88167953491211 74.70933532714844 36.36149978637695C74.52637481689453 36.577545166015625 74.25709533691406 36.70144271850586 73.9739761352539 36.6998405456543L72.41000366210938 36.6998405456543Z"/>
    </g>
    <g opacity="1">
      <path fill="rgb(255,255,255)" fill-opacity="1" opacity="1" fill-rule="evenodd" d="M81.32758778475755 39.510470590302525L84.97241917129233 39.510470590302525L84.97241917129233 41.51653949889452L79.24406574947231 41.51653949889452L79.24406574947231 32.40531019293883L84.9058104105735 32.40531019293883L84.9058104105735 34.408714999394576L81.32758778475755 34.408714999394576L81.32758778475755 35.91926091064513L84.58075965826556 35.91926091064513L84.58075965826556 37.898688797874684L81.32758778475755 37.898688797874684L81.32758778475755 39.510470590302525Z"/>
    </g>
    <g opacity="1">
      <path fill="rgb(255,255,255)" fill-opacity="1" opacity="1" fill-rule="evenodd" d="M89.13679889143371 39.510470590302525L92.78163027796879 39.510470590302525L92.78163027796879 41.51653949889452L87.0532768561483 41.51653949889452L87.0532768561483 32.40531019293883L92.71502151724995 32.40531019293883L92.71502151724995 34.408714999394576L89.13679889143371 34.408714999394576L89.13679889143371 35.91926091064513L92.38997076494199 35.91926091064513L92.38997076494199 37.898688797874684L89.13679889143371 37.898688797874684L89.13679889143371 39.510470590302525Z"/>
    </g>
    <g opacity="1">
      <path fill="rgb(255,255,255)" fill-opacity="1" opacity="1" fill-rule="evenodd" d="M98.05171542604329 41.69237023988673C97.23486952151285 41.72163483827593 96.4272928916879 41.511425192320885 95.72840185217039 41.08761905495927C95.1155457662493 40.70001635157966 94.64738084183132 40.12141842993222 94.39622663779375 39.441203934760246L96.19199882677347 38.39953999948871C96.48569694122432 39.194040561077976 97.2616529785186 39.705541097750036 98.1076667850471 39.662324412068536C98.1076667850471 39.662324412068536 99.34126103355989 39.662324412068536 99.34392538398863 38.921704018192614C99.34365803485348 38.65185827965732 99.18957924699541 38.4057687887875 98.94693717010448 38.2876477097665C98.47025759751587 38.05677357141227 97.97000318659084 37.87812793144846 97.45490093000254 37.754827282517596C97.11255834619342 37.66309838658796 96.77766608622726 37.54554078352688 96.45310516879132 37.40316580053336C96.15496015603544 37.26376891656402 95.87343501595821 37.09129498455727 95.613834783734 36.88899408823818C95.34250698590334 36.67884384405872 95.12816151931163 36.40406757277471 94.99037678340575 36.089763447364874C94.84044984608767 35.74082316010559 94.76686774320734 35.36386356784978 94.77456439867672 34.984161060823475C94.7448791956687 34.207332708373436 95.07999702133661 33.4612722582575 95.68044354445283 32.96743574368651C96.28315698217305 32.463918893199946 97.04804099783222 32.196045125645725 97.8332386908855 32.21349483912936C98.5299272770987 32.202739578505025 99.215701275367 32.387318337738876 99.81285105944922 32.74631526637823C100.40150244572659 33.116692931818505 100.87130980458181 33.648413516257854 101.16634107725594 34.27817399471873L99.42918459770875 35.29852511290029C99.29695648608701 34.9846448882905 99.08698248813181 34.709595416222854 98.81904834952425 34.49929447202699C98.53434452205856 34.3095785119713 98.19627952117982 34.216199093079986 97.85455349431554 34.23288425840256C97.59825934266087 34.21648678086612 97.34391038227126 34.28687199971715 97.1325145281234 34.43269191862088C96.97418057193903 34.54585206180272 96.87998090772277 34.728284935138575 96.87940123739182 34.922886711689834C96.88316973824742 35.15754475520246 97.0016066940937 35.375488252515204 97.19645893841349 35.50632507952735C97.60834602576533 35.758642447084824 98.058153549822 35.943046345630016 98.52863415279012 36.05246601745744C98.89365016152934 36.16702240931595 99.17607130697718 36.257601881948254 99.37589758913367 36.31887623108188C99.63608825513653 36.417107276265334 99.88972057193347 36.53189857381827 100.13523746132834 36.662545406657415C100.66000471886417 36.89838621578423 101.06800925392663 37.33515036484682 101.26758639354853 37.87471187864857C101.39934912267056 38.190039849363274 101.46378156459653 38.52941291411305 101.45675527399003 38.87108607760398C101.49047876636631 39.6642019178223 101.14290268928096 40.425629538124866 100.52156827349762 40.919780620375874C99.81354380043541 41.45735807859161 98.93990302487114 41.73063986340645 98.05171542604329 41.69237023988673Z"/>
    </g>
    <g opacity="1">
      <path fill="rgb(255,255,255)" fill-opacity="1" opacity="1" fill-rule="evenodd" d="M109.18070716694487 32.40531019293883L109.18070716694487 34.408714999394576L106.83874314007066 34.408714999394576L106.83874314007066 41.51653949889452L104.75788545521425 41.51653949889452L104.75788545521425 34.408714999394576L102.4132570779113 34.408714999394576L102.4132570779113 32.40531019293883L109.18070716694487 32.40531019293883Z"/>
    </g>
    <g opacity="1">
      <path fill="rgb(255,255,255)" fill-opacity="1" opacity="1" fill-rule="evenodd" d="M118.42333880429035 32.40531019293883L115.36200016165239 38.0132451897332L115.36200016165239 41.51653949889452L113.28380682722454 41.51653949889452L113.28380682722454 38.0132451897332L110.22513253501532 32.40531019293883L112.59374006617733 32.40531019293883L114.32556784486721 35.9059403999639L116.0573956235571 32.40531019293883L118.42333880429035 32.40531019293883Z"/>
    </g>
    <g opacity="1">
      <path fill="rgb(255,255,255)" fill-opacity="1" opacity="1" fill-rule="evenodd" d="M122.19605901140591 39.510470590302525L125.4518952353421 39.510470590302525L125.4518952353421 41.51653949889452L120.12319437783606 41.51653949889452L120.12319437783606 32.40531019293883L122.20671641312093 32.40531019293883L122.19605901140591 39.510470590302525Z"/>
    </g>
    <g opacity="1">
      <path fill="rgb(255,255,255)" fill-opacity="1" opacity="1" fill-rule="evenodd" d="M129.35516861346557 39.510470590302525L133 39.510470590302525L133 41.51653949889452L127.27164657818054 41.51653949889452L127.27164657818054 32.40531019293883L132.93339123928115 32.40531019293883L132.93339123928115 34.408714999394576L129.35516861346557 34.408714999394576L129.35516861346557 35.91926091064513L132.60834048697328 35.91926091064513L132.60834048697328 37.898688797874684L129.35516861346557 37.898688797874684L129.35516861346557 39.510470590302525Z"/>
    </g>
    <g opacity="1">
      <path fill="rgb(255,255,255)" fill-opacity="1" opacity="1" fill-rule="evenodd" d="M68.18168276928955 46.85007197565571L64.71802721191001 46.85007197565571L64.71802721191001 48.619035794121956L68.10175225642693 48.619035794121956L68.10175225642693 50.625104702713955L64.71802721191001 50.625104702713955L64.71802721191001 53.947240066610675L62.66114868091232 53.947240066610675L62.66114868091232 44.83601076065497L68.19234017100456 44.83601076065497L68.18168276928955 46.85007197565571Z"/>
    </g>
    <g opacity="1">
      <path fill="rgb(255,255,255)" fill-opacity="1" opacity="1" fill-rule="evenodd" d="M71.9769058227539 53.40843963623047C73.88885498046875 54.67027282714844 76.42636108398438 54.40382385253906 78.0344467163086 52.772369384765625C78.93952941894531 51.88733673095703 79.43893432617188 50.667869567871094 79.41458129882812 49.40228271484375C79.4126968383789 47.11162567138672 77.79086303710938 45.14214324951172 75.54293060302734 44.70072937011719C73.29499816894531 44.259307861328125 71.04871368408203 45.46922302246094 70.18060302734375 47.58903503417969C69.31248474121094 49.70885467529297 70.06495666503906 52.14659881591797 71.9769058227539 53.40843963623047ZM76.57172393798828 51.355064392089844C75.51013946533203 52.36084747314453 73.8472671508789 52.36084747314453 72.78568267822266 51.355064392089844C71.7696304321289 50.25244140625 71.7696304321289 48.554779052734375 72.78568267822266 47.45215606689453C73.84619140625 46.443687438964844 75.51121520996094 46.443687438964844 76.57172393798828 47.45215606689453C77.58777618408203 48.554779052734375 77.58777618408203 50.25244140625 76.57172393798828 51.355064392089844Z"/>
    </g>
    <g opacity="1">
      <path fill="rgb(255,255,255)" fill-opacity="1" opacity="1" fill-rule="evenodd" d="M83.14320373535156 53.40843963623047C85.05516052246094 54.67027282714844 87.59265899658203 54.40382385253906 89.20074462890625 52.772369384765625C90.10582733154297 51.88733673095703 90.60523223876953 50.667869567871094 90.58087921142578 49.40228271484375C90.57899475097656 47.11162567138672 88.95716094970703 45.14214324951172 86.709228515625 44.70072937011719C84.46129608154297 44.259307861328125 82.21501159667969 45.46922302246094 81.3469009399414 47.58903503417969C80.4787826538086 49.70885467529297 81.23125457763672 52.14659881591797 83.14320373535156 53.40843963623047ZM87.7380142211914 51.355072021484375C86.67500305175781 52.35985565185547 85.01232147216797 52.35985565185547 83.94931030273438 51.355072021484375C82.93325805664062 50.25244903564453 82.93325805664062 48.554786682128906 83.94931030273438 47.45216369628906C85.01071166992188 46.44335174560547 86.6766128540039 46.44335174560547 87.7380142211914 47.45216369628906C88.75406646728516 48.554786682128906 88.75406646728516 50.25244903564453 87.7380142211914 51.355072021484375Z"/>
    </g>
    <g opacity="1">
      <path fill="rgb(255,255,255)" fill-opacity="1" opacity="1" fill-rule="evenodd" d="M98.26219910991435 44.8466671692L98.26219910991435 46.85007197565574L95.91757073261128 46.85007197565574L95.91757073261128 53.94724006661066L93.83404869732607 53.94724006661066L93.83404869732607 46.85007197565575L91.489420320023 46.85007197565575L91.489420320023 44.84666716920002L98.26219910991435 44.8466671692Z"/>
    </g>
    <g opacity="1">
      <path fill="rgb(255,255,255)" fill-opacity="1" opacity="1" fill-rule="evenodd" d="M105.7330322265625 49.23444366455078C106.45293426513672 49.66365051269531 106.8818359375 50.45091247558594 106.85205841064453 51.28846740722656C106.875244140625 52.02631378173828 106.56387329101562 52.73515319824219 106.00479888916016 53.21727752685547C105.42395782470703 53.717376708984375 104.67675018310547 53.98163604736328 103.9106216430664 53.95790100097656L100.08194732666016 53.95790100097656L100.08194732666016 44.84667205810547L103.6495132446289 44.84667205810547C104.39877319335938 44.822425842285156 105.1298828125 45.080047607421875 105.69839477539062 45.568641662597656C106.2455825805664 46.03863525390625 106.55028533935547 46.73125457763672 106.52700805664062 47.45216369628906C106.54578399658203 48.13579559326172 106.25384521484375 48.7911376953125 105.7330322265625 49.23444366455078ZM103.64952087402344 46.79945373535156L102.16547393798828 46.79945373535156L102.16547393798828 48.41389465332031L103.64952087402344 48.41389465332031C103.86422729492188 48.42169189453125 104.07225036621094 48.33848571777344 104.22235107421875 48.184783935546875C104.51778411865234 47.85496520996094 104.51778411865234 47.35572052001953 104.22235107421875 47.025901794433594C104.07197570800781 46.872886657714844 103.86388397216797 46.790626525878906 103.64952087402344 46.79945373535156ZM104.5394058227539 51.765342712402344C104.37461853027344 51.929473876953125 104.14826202392578 52.01652526855469 103.91594696044922 52.00511169433594L102.1707992553711 52.00511169433594L102.1707992553711 50.26012420654297L103.91594696044922 50.26012420654297C104.1488265991211 50.248382568359375 104.37564849853516 50.336578369140625 104.5394058227539 50.50255584716797C104.85218811035156 50.865386962890625 104.85218811035156 51.402503967285156 104.5394058227539 51.765342712402344Z"/>
    </g>
    <g opacity="1">
      <path fill="rgb(255,255,255)" fill-opacity="1" opacity="1" fill-rule="evenodd" d="M114.25363159179688 52.513954162597656L114.74386596679688 53.947242736816406L116.8726806640625 53.947242736816406L113.77937316894531 44.83601379394531L111.11502075195312 44.83601379394531L108.01638793945312 53.947242736816406L110.29440307617188 53.947242736816406L110.75001525878906 52.513954162597656L114.25363159179688 52.513954162597656ZM113.59019470214844 50.56383514404297L111.38145446777344 50.56383514404297L112.44718933105469 47.21772003173828L113.59019470214844 50.56383514404297Z"/>
    </g>
    <g opacity="1">
      <path fill="rgb(255,255,255)" fill-opacity="1" opacity="1" fill-rule="evenodd" d="M120.64807141229961 51.95182756656365L123.901243285808 51.95182756656365L123.901243285808 53.947240066610675L118.57254242830044 53.947240066610675L118.57254242830044 44.83601076065497L120.6560644635859 44.83601076065497L120.64807141229961 51.95182756656365Z"/>
    </g>
    <g opacity="1">
      <path fill="rgb(255,255,255)" fill-opacity="1" opacity="1" fill-rule="evenodd" d="M127.80718101435978 51.95182756656365L131.0603528878682 51.95182756656365L131.0603528878682 53.947240066610675L125.73165203036058 53.947240066610675L125.73165203036058 44.83601076065497L127.81517406564608 44.83601076065497L127.80718101435978 51.95182756656365Z"/>
    </g>
    <g opacity="1">
      <path fill="rgb(255,255,255)" fill-opacity="1" opacity="1" fill-rule="evenodd" d="M23.39928076280182 49.09058187223724C23.10886656606776 47.995635894240806 22.786480164188664 46.911346324789356 22.480079864882093 45.819064448929176C22.402813702448263 45.536669622487274 22.282917933154383 45.47006706908117 22.013818539850348 45.632577299392075C21.385420107812465 46.02596877303013 20.882540552879412 46.59073122590647 20.564411906608807 47.26034370463738C20.40188653045488 47.57470775671422 20.239361154300962 47.88907180879105 20.074171427718284 48.203435860867884C19.94023356905163 48.45955936774573 19.913551200944788 48.75839870991984 19.999995648107088 49.034195750525924C20.08644009526939 49.30999279113201 20.27892825625281 49.54014922013625 20.53510405189252 49.67402024007477L21.835307061123906 50.35603038695332C22.21786607223511 50.5588853091503 22.68424585311558 50.51600394401576 23.023392478724432 50.24679167916251C23.36253910433328 49.97757941430927 23.510093053709742 49.53312439596791 23.39928076280182 49.114558791463445L23.39928076280182 49.09058187223724Z"/>
    </g>
    <g opacity="1">
      <path fill="rgb(255,255,255)" fill-opacity="1" opacity="1" fill-rule="evenodd" d="M36.73701900914203 52.972178684745415C36.26542898325261 51.22719178550537 35.69792234192805 49.50884590762776 35.15439485446227 47.78250772334141C34.74408488843417 46.482425880854166 34.253844409543476 45.20365685545688 33.90747885380548 43.890254502288414C33.736960426365236 43.240213581044785 33.792911785369064 42.523570106395056 33.771596981939034 41.836231755244015C33.73962477679399 40.831865249879904 33.734296075936484 39.83282694878827 33.70765257164894 38.83112454556039C33.71625733747715 38.664840700503696 33.668369243782564 38.50053412363655 33.5717706997825 38.364906671717634C33.33743056888847 38.14623113192434 33.23610952516061 37.8200077749159 33.30533565690712 37.50706578384695C33.37194441762596 37.0301915014592 33.47052538348986 36.558645423343954 33.54779154592372 36.084435243092464C33.54771757508015 35.95134514359019 33.48224474266811 35.82678822679305 33.3726558989567 35.75125344227772C33.26306705524527 35.675718657762395 33.12335510741002 35.65885070285802 32.998935357600466 35.70613273974576C32.73250031472506 35.81003272305929 32.48471572485095 35.90594039996409 32.247588536691865 36.01783268968636C31.864202029592107 36.19412100654593 31.494594585164993 36.39894459717035 31.14188310875905 36.63057618102256C30.992427993596408 36.735992744677965 30.890116189719908 36.89566077258019 30.856797612882392 37.07548123777537C30.81862905344227 37.53178087274387 30.809729666664452 37.99005658081636 30.830154108594833 38.447493837941195C30.848804561596108 38.88440658828528 30.515760758001882 39.006955286552525 30.243997014269 39.18811423181713C30.153409099691366 39.25471678522324 30.001541125252402 39.39591419844418 30.065485535542496 39.56108853089133C30.193374356122675 39.88078078724065 30.331920578417876 40.19248073718125 30.43050154428177 40.50684478925808C30.550695089674864 40.849196355918515 30.645099054248966 41.2000614106488 30.712922689729666 41.55650103093836C30.870119365026135 42.48094447221516 31.229806672907905 43.33878536008583 31.51222781835581 44.220603167182716C31.778662861231194 45.06778764650842 32.023783100676546 45.92562853437909 32.23693113497686 46.78879762652227C32.49004442570847 47.806484642567604 32.72983596429632 48.82949986288545 32.92699789602409 49.860507389611996C33.06021541746178 50.54251753649055 33.06021541746178 51.248504602595304 33.209419041471996 51.927850647337614C33.35862266548221 52.607196692079924 33.355958315053456 53.310519656048434 33.824883990514124 53.88596571747722C33.91242755998735 54.03036783488959 33.97376254229289 54.1891024069026 34.006059819669375 54.35484769345622C34.14194169153583 54.7624553203016 34.27249486254477 55.175391151419475 34.389726281409935 55.58566288040112C34.446446154672934 55.76856177179493 34.59482256913144 55.90839705140048 34.78077207331506 55.954198525700235C34.966721577498674 56 35.16307825859335 55.94507639620436 35.298269777614976 55.80944745984565L36.23345677810758 54.86901940575139C36.72669573908393 54.37674412492269 36.91790946009682 53.65772549465082 36.73701900914203 52.972178684745415Z"/>
    </g>
    <g opacity="1">
      <path fill="rgb(255,255,255)" fill-opacity="1" opacity="1" fill-rule="evenodd" d="M50.21063912734698 7.133637328525054L29.88963840724506 7.021745038802786C28.76517736240538 7.01588130203187 27.856723738520746 6.102750245960458 27.856739030106237 4.97837870030338L27.856739030106237 2.1491022316118626C27.856832136574237 1.4632863318657008 27.51284193750166 0.8231609155616273 26.940839267279145 0.4447201923748334C26.368836597056642 0.06627946918802444 25.645115379247013 0 25.013877122625377 0.26824612342378984L1.2452069477176093 10.354536811244467C0.49110899433541727 10.674223954643402 0.0012055309570556184 11.413730925348315 0.0009552974897897585 12.232728817296751L0.0009552974897897585 37.63760678852287C0 38.39619815476406 0.4210308037140829 39.092374454333196 1.093338973278601 39.44386803689649L10.767595380082145 44.53230311712325C11.195016903306033 44.75797807878895 11.701605284318836 44.77816700372097 12.14563335420137 44.58722167873205C12.589661424083904 44.39627635374313 12.923447167834537 44.014701468667475 13.053608047952546 43.54924942884907L13.285406535254083 42.7153854602046C13.485232817410585 42.02005480264482 13.818276621004756 41.35935747285623 13.999452450159987 40.65869861102396C14.16902709119194 40.1887669032734 14.371118264092633 39.73121103231968 14.604259997487002 39.28935011299437C14.774778424927216 38.88174248614899 15.003912561800009 38.455486144349884 14.889345493363612 37.92266571710101C14.822736732644778 37.616293971432924 15.102493527663883 37.24065557022246 15.214396245671523 36.894322292510694C15.425777499547998 36.36087557570688 15.596777205645758 35.81230264526765 15.725951527992166 35.25323537658418C15.856460557339073 34.52080000784876 16.15163468826069 33.82756982127267 16.58920106690826 33.22585365090221C17.186015562949013 32.36534866089528 17.801480511991045 31.51550007943333 18.40895240974681 30.660323293698898C18.577112654675926 30.433280766528483 18.72764417313833 30.193699672445636 18.859227632206128 29.94367981904917C18.859227632206128 29.94367981904917 18.99066596621022 29.581347226240112 18.989780803215048 29.568041417838725C18.99066596621022 29.594697141481003 19.015467992634015 29.316225029733214 18.976459051071284 28.968618437183746C18.997773854501308 29.1284645653584 18.951967849037786 28.71146443004979 18.949815546783753 28.582323627428334C18.94779628980256 28.492616628696094 18.95765101435282 28.403036572494102 18.979123401500043 28.31591341380388C19.00059578864727 28.228790255113662 19.18960708537156 27.593941734881668 18.315700144740454 27.54332379429303C17.45245060582436 27.716490433148902 16.946224024361225 28.249310860397777 16.626501972910816 29.099159441859722C16.258821613742853 30.060900313043938 15.72328717756343 30.96403093723077 15.275676305532862 31.89646668491629C14.507220902924491 33.468965113292384 13.904496455887578 35.117151250471835 13.477239766124338 36.81439922842334C13.37333009940296 37.22200685526874 13.33602919340041 37.6455990949316 13.242776928394045 38.05587082391323C13.12140056453066 38.587653313008516 12.804762771119531 39.05448414873043 12.355548235619162 39.3639449728092C11.777384192579692 39.784873110335816 11.260500209401531 40.29105251622225 10.716972721935855 40.96240625455584C10.681963242964983 40.80173385698243 10.983407764811185 41.30341132799509 10.948771209237393 41.40198310703614C10.836868491229753 41.750980486884146 10.762266679224659 42.113298377413386 10.634377858644493 42.45163934871641C10.602405653499451 42.53422651493998 10.29067665333531 42.51024959571379 10.024241610459972 42.54488292348497C9.731163063297105 42.92318542683167 9.576630738429406 42.92584952896791 9.243586934835236 42.44897524658017C9.089054609967537 42.23584707568062 8.958501438958626 42.044031721871036 8.633450686650715 42.09198556032343C8.558848874645623 42.09198556032343 8.367015643775378 41.876193287287634 8.367015643775378 41.766965099701615C8.417638301921693 40.79723192210868 8.313728635200315 39.795529518880805 8.88123527652478 38.82579634128784C8.969158840673645 38.06919133459446 9.427427114419224 37.5976452564792 10.10683647375133 37.30725812362857C10.786245833083434 37.016870990777946 11.100639183676332 36.45474544003038 11.24717845725777 35.73010965897191C11.532263953134379 34.334120139579866 11.88928691058733 32.95944343727779 12.209008962037739 31.574110326430713C12.590312058004073 29.804256804489345 13.162960857344668 28.08111079533472 13.91685758686863 26.43505730561537C14.23718914823703 25.86352732177953 14.689337486057712 25.37671397718295 15.23571104910156 25.015090866997138C15.997715271725026 24.45296531624956 16.85563610978361 24.021380770177974 17.66026993926712 23.517865466427796C18.89652853820868 22.747939949053183 20.095486231147696 21.919404184681184 21.366381385663054 21.20009660789521C22.68410730075485 20.408160152980777 24.133468172224035 19.859511778633216 25.645328174240955 19.580322509058668C26.666844101654178 19.42337581217001 27.71196048322988 19.5668460893268 28.653379808303516 19.993258340176528C29.599224210510958 20.422178784111875 30.48645290328583 20.96299151776947 31.40831815163449 21.43720169802097C31.94118823738516 21.703611911645407 32.490044425708355 21.97002212526984 33.1108380756079 22.15650927480693C33.00412634135947 22.200673950098835 35.60999877777856 20.209050613212323 37.205627356310664 19.477149206523634C37.16946308363065 19.60695179331629 37.15823656289688 19.351010974096962 37.094041966594176 19.329896908251683C36.88888698358018 19.265958456981817 36.68639635099492 19.199355903575707 36.486570068838425 19.12209694162463C35.73899858855184 18.840777117287008 35.08668837203503 18.352975845868535 34.60553866613856 17.715451013687623C33.07353716960536 15.709382105095631 33.23872689618807 13.279720956840784 34.661490025142356 11.441490482832172C35.703251042784935 10.096118904028772 37.165979428170516 9.480711310556327 38.92445071114774 9.63522923445851C40.25093694957168 9.737602380060016 41.48112988459283 10.367034018062668 42.34014796080956 11.382880235834804C43.00063270787806 12.11612006314136 43.37844042173273 13.060551327425896 43.405888132310906 14.046982372079155C43.40968965385444 14.556152097062428 43.382105750720115 15.065072169052417 43.32329326901957 15.57084879401075C43.28455163976452 16.03911277574048 43.58440660810164 16.46871567674889 44.03733918392546 16.59386401432874C44.148733319791475 16.6365387555067 44.23938896101429 16.720506681622613 44.29045247465702 16.828305002318256C44.35736447064569 16.97700091803141 44.44141692044216 17.117373310079916 44.54090141495984 17.246569037708632C44.654933815672464 17.32721726545185 44.7820201950958 17.38760020107536 45.009827090420444 17.43838439151822C44.94715923716128 17.432486783574685 45.161007864483054 17.446172675154354 45.236296876864486 17.43838439151822C45.334750920368556 17.41928613643203 45.43178236256666 17.39347283740896 45.60397723603245 17.32382799965971C45.64269341365224 17.305084149006614 45.687400086367965 17.303023223816503 45.72767682590914 17.318125593613836C45.76795356545035 17.333227963411183 45.80028141984146 17.36417414418017 45.83311137290524 17.443712595790704C45.9328077867457 17.66165653225916 46.162957909552496 17.78914565736026 46.549821638239884 17.744756137186297C46.45009502816003 17.75111428961886 46.765904578267595 17.774390766846455 46.84822888626027 17.845992018363596C47.01075426241424 18.048463780718166 46.92815939912288 18.33885091356881 47.17061528813943 18.557307288740844C47.33314066429339 18.70916111050677 47.24788145057328 18.898312362180114 47.09310080079526 19.337066602315055C47.07854634199597 19.151822420568145 47.1810645807092 19.500746213650825 47.263867553145786 19.54302507915125C47.28360814656534 19.55164924425827 47.302366022307226 19.562367031506007 47.54362434816488 19.84140451841062C47.41466114860919 19.644616294450675 47.70173087617753 20.22110080383242 47.76476543375142 20.416850579839405C47.92196210904785 20.717894121235016 47.8047306901827 20.68326079346384 47.780751536323926 20.867083840864698C47.846478959366806 21.103172444610756 47.948015606805185 21.327790110924266 48.08182313477306 21.53310937492579C48.170226416133374 21.65435243348138 48.246947019543626 21.783694884602664 48.31095727164585 21.91940418468123C48.357858651339235 22.021726307203455 48.39617940503308 22.12776688219081 48.42552434008225 22.23643233889428C48.52410530594612 22.598750229423526 48.44151044265477 22.801221991778096 48.23369110921199 22.80388609391434C48.195390085904435 22.813573242247937 48.155957904551435 22.818053754366463 47.93261951076287 22.798557889641852C48.054723960003464 22.816887876589295 47.83936724575649 22.865160443047962 47.66085576703003 23.283424478438324C47.65286271574376 23.107593737446205 47.508987792591086 23.371339848934383 47.450372083158506 23.794932088597243C47.162622236853124 23.520529568564083 47.407742476298445 24.202539715442622 47.33047631386461 24.40767557993345C47.253210151430764 24.612811444424278 47.14930048470938 24.73802424482775 47.269196254003276 24.8552447388225C47.389092023297174 24.972465232817253 47.474351237017274 25.281501080621606 46.79760622811393 25.34277542975521C47.113971911662986 25.37798829101636 46.320687501367075 25.875595857004082 46.328680552653346 26.048762495859958C46.355707303519736 26.264600191610604 46.355707303519736 26.482965721352922 46.328680552653346 26.698803417103584C46.327668561247386 26.81810251670672 46.25689701873253 26.925759161024562 46.14777151267455 26.97399962561903C46.03864600661658 27.02224009021352 45.91138191732237 27.002127881929287 45.822453971190214 26.922587996548096C45.63704588139309 26.76706374227219 45.387162475427715 26.712313516955607 45.15370201357312 26.776062379054657C44.919239175842826 26.845329034597007 44.65280413296749 27.239616150761176 44.492943107242276 27.38081356398212C44.32051506122735 27.58074876832916 44.17290393847298 27.80080302425579 44.05332528649797 28.036182689498222C43.87117260358579 28.25965930714406 43.64310322072023 28.441370963665875 43.38457332888088 28.569003116747094C43.13919812045004 28.732578691890577 42.92379655579593 28.9371460496844 42.74779357640883 29.173754301674556C42.60658300368491 29.389546574710348 42.34814101209582 29.498774762296375 42.33215490952331 29.320279919167998C42.39045189866768 29.001859160160592 42.488931654366645 28.692124432028272 42.63285038975698 28.203620700095076C42.65909144101769 28.338580540000084 42.5463591059725 28.096740978640483 42.40142802067086 28.08413652795064C42.337768231146484 28.075605053270106 42.27325457932499 28.075605053270106 42.17229388379807 28.084136527950623C41.7246830117675 28.241318553989032 41.28240084059445 28.39583647789122 40.66160719069491 27.7884211908275C40.93603528485651 27.783092986554998 39.198878805309306 27.87633656132356 37.493694530907156 28.038846791634466C37.64985279247403 27.98829823497098 37.81608093278631 28.598308240245785 37.95729150551024 28.87803896455143C38.335381202226 29.551007025214414 38.67518221863026 30.244776902446638 38.97507336929402 30.956038630822043C39.2778770099853 31.790362984298863 39.36046491298474 32.688652120322246 39.214864907881825 33.564194622205235C39.041682130012866 34.669797008746656 38.79123318971005 35.76474298674309 38.58874255712478 36.867681271148236C38.484832890403396 37.43779912830453 38.40490237754079 38.010581087597075 38.322307514249445 38.5833630468896C38.24616017077751 39.015992416294424 38.02199931922413 39.40870823182438 37.688192112206146 39.6942936377035C37.57368179081514 39.820645647424406 37.49704656843133 39.97667149848572 37.4670510266196 40.14452689872878C37.32918686556389 40.936881285573385 37.41689515946937 41.752030824911756 37.720164317351184 42.496929085032534C38.04468998576766 43.559258352277354 38.20111121185653 44.665790450188126 38.18376129195427 45.77643881474935C38.21415256620664 46.76937460351559 38.296862154547746 47.760018635433646 38.431545881828335 48.744248594525565C38.519015504329374 49.394697417255315 38.968313059087606 49.93903767912407 39.59042658872304 50.148274547449304C40.21254011835849 50.35751141577453 40.89950683833493 50.195333519952754 41.36233135345704 49.72996638493596L51.633402256301274 39.419891117670325C52.02522106775544 39.03643716103224 52.24528514266053 38.51083091148724 52.2435385044858 37.96262724914466L52.2435385044858 9.1903241777057C52.24944297929021 8.0613606978868 51.33969943618438 7.140972014475322 50.21063912734698 7.133637328525054Z"/>
    </g>
    <g opacity="1">
      <rect fill="rgb(255,255,255)" fill-opacity="1" opacity="1" x="55.95135900382091" y="7.527924444689262" width="2.2087465054365083" height="46.65908481418369" rx="0" ry="0"/>
    </g>
  </g>
</svg>